<svg width="21" height="20" viewBox="0 0 21 20" fill="none" xmlns="http://www.w3.org/2000/svg">
<path d="M20.5809 3.16226L13.0961 18.756C12.8407 19.2828 12.3907 19.6859 11.8439 19.8777C11.2972 20.0696 10.6979 20.0346 10.1765 19.7804C9.88246 19.638 9.62376 19.4304 9.41949 19.1729C9.21521 18.9154 9.0706 18.6146 8.99633 18.2927L7.63667 12.353L1.76449 11.1908C1.48368 11.1366 1.21619 11.0266 0.977381 10.8672C0.738573 10.7078 0.533159 10.502 0.37294 10.2618C0.212719 10.0215 0.100853 9.7515 0.0437641 9.46724C-0.0133247 9.18298 -0.0145111 8.89007 0.0402775 8.60535C0.110592 8.24769 0.2672 7.91332 0.49608 7.63217C0.724958 7.35101 1.01896 7.13185 1.35177 6.99431L17.7772 0.167953C18.3125 -0.0559954 18.9134 -0.0559839 19.4487 0.167985C19.9839 0.391954 20.4102 0.821699 20.6345 1.36345C20.8721 1.94343 20.8534 2.59673 20.5819 3.16226H20.5809Z" fill="#AFE1B4"/>
</svg>
