<svg width="36" height="36" viewBox="0 0 36 36" fill="none" xmlns="http://www.w3.org/2000/svg">
<rect width="36" height="36" rx="6" fill="#4FAF5A"/>
<path d="M24.9279 19.528C25.922 19.528 26.7279 18.7221 26.7279 17.728C26.7279 16.7339 25.922 15.928 24.9279 15.928L19.5279 15.928L19.5279 10.528C19.5279 9.53391 18.722 8.72803 17.7279 8.72803C16.7338 8.72803 15.9279 9.53391 15.9279 10.528L15.9279 15.928L10.5279 15.928C9.53379 15.928 8.7279 16.7339 8.7279 17.728C8.7279 18.7221 9.53379 19.528 10.5279 19.528L15.9279 19.528L15.9279 24.928C15.9279 25.9221 16.7338 26.728 17.7279 26.728C18.722 26.728 19.5279 25.9221 19.5279 24.928L19.5279 19.528L24.9279 19.528Z" fill="white"/>
</svg>
