<svg width="62" height="62" viewBox="0 0 62 62" fill="none" xmlns="http://www.w3.org/2000/svg">
<g filter="url(#filter0_d_147_228)">
<circle cx="31" cy="27" r="27" fill="#29160F"/>
</g>
<path d="M37.364 23.1815C38.0669 22.4786 38.0669 21.3389 37.364 20.6359C36.661 19.933 35.5213 19.933 34.8184 20.6359L31 24.4543L27.1816 20.6359C26.4787 19.933 25.339 19.933 24.636 20.6359C23.9331 21.3389 23.9331 22.4786 24.636 23.1815L28.4544 26.9999L24.636 30.8183C23.9331 31.5212 23.9331 32.6609 24.636 33.3639C25.339 34.0668 26.4787 34.0668 27.1816 33.3639L31 29.5455L34.8184 33.3639C35.5213 34.0668 36.661 34.0668 37.364 33.3639C38.0669 32.6609 38.0669 31.5212 37.364 30.8183L33.5456 26.9999L37.364 23.1815Z" fill="#AFE1B4"/>
<defs>
<filter id="filter0_d_147_228" x="0" y="0" width="62" height="62" filterUnits="userSpaceOnUse" color-interpolation-filters="sRGB">
<feFlood flood-opacity="0" result="BackgroundImageFix"/>
<feColorMatrix in="SourceAlpha" type="matrix" values="0 0 0 0 0 0 0 0 0 0 0 0 0 0 0 0 0 0 127 0" result="hardAlpha"/>
<feOffset dy="4"/>
<feGaussianBlur stdDeviation="2"/>
<feComposite in2="hardAlpha" operator="out"/>
<feColorMatrix type="matrix" values="0 0 0 0 0.201667 0 0 0 0 0.504167 0 0 0 0 0.337187 0 0 0 0.3 0"/>
<feBlend mode="normal" in2="BackgroundImageFix" result="effect1_dropShadow_147_228"/>
<feBlend mode="normal" in="SourceGraphic" in2="effect1_dropShadow_147_228" result="shape"/>
</filter>
</defs>
</svg>
