<svg width="108" height="120" viewBox="0 0 108 120" fill="none" xmlns="http://www.w3.org/2000/svg">
<g filter="url(#filter0_b_122_251)">
<rect width="108" height="120" rx="20" fill="#FBFBFF" fill-opacity="0.71"/>
<rect x="1" y="1" width="106" height="118" rx="19" stroke="white" stroke-width="2"/>
</g>
<path d="M58.5 19L53.5 27.5L52 26.4667L56.3167 19H58.5Z" fill="#68A9E4"/>
<path d="M62.9 19L56.6 29.9667L55 29L60.7167 19.2L62.9 19Z" fill="#66AAEE"/>
<path d="M61.5 19L55.7833 28.8L53 27.6333L58.0167 19H61.5Z" fill="#77C0EB"/>
<path d="M47.4 19L52.4 27.5L53.9 26.4667L49.5834 19H47.4Z" fill="#8FDFEA"/>
<path d="M43 19L49.3 29.9667L50.9 29L45.1834 19.2L43 19Z" fill="#8FDFEA"/>
<path d="M44.4 19L50.1167 28.8L52.9 27.6333L47.8834 19H44.4Z" fill="#ABF7DD"/>
<path d="M52.9999 47.6666C52.2999 48.7166 50.8999 49.0666 49.8499 48.4833C49.2666 48.1333 48.9166 47.6666 48.7999 47.0833V46.85C47.7499 47.55 46.3499 47.3166 45.6499 46.2666C45.2999 45.8 45.1833 45.1 45.2999 44.5166V44.2833C44.0166 44.5166 42.8499 43.7 42.6166 42.4166C42.4999 41.8333 42.6166 41.1333 42.9666 40.6666L43.0833 40.4333C41.7999 40.2 41.0999 38.9166 41.3333 37.6333C41.4499 37.05 41.7999 36.4666 42.3833 36.2333L42.6166 36.1166C41.5666 35.3 41.4499 33.9 42.1499 32.85C42.6166 32.5 43.1999 32.15 43.7833 32.0333H44.0166C43.4333 30.8666 43.7833 29.4666 44.9499 28.8833C45.5333 28.5333 46.1166 28.5333 46.6999 28.65L46.9333 28.7666C46.8166 27.4833 47.7499 26.4333 49.0333 26.3166C49.6166 26.3166 50.3166 26.4333 50.7833 26.9L50.8999 27.0166C51.3666 25.85 52.6499 25.15 53.8166 25.6166C54.3999 25.85 54.8666 26.2 55.0999 26.7833L55.2166 27.0166C56.0333 26.0833 57.5499 26.0833 58.4833 26.9C58.9499 27.3666 59.1833 27.95 59.1833 28.5333V28.7666C60.3499 28.3 61.7499 28.8833 62.2166 30.05C62.4499 30.6333 62.4499 31.2166 62.2166 31.8L62.0999 32.0333C63.3833 32.0333 64.3166 33.0833 64.3166 34.3666C64.3166 34.95 64.0833 35.5333 63.6166 36L63.3833 36.1166C64.5499 36.7 65.0166 37.9833 64.4333 39.15C64.1999 39.7333 63.7333 40.2 63.1499 40.3166L62.9166 40.4333C63.7333 41.3666 63.6166 42.8833 62.6833 43.7C62.2166 44.05 61.6333 44.2833 60.9333 44.2833H60.6999C61.0499 45.45 60.3499 46.7333 59.1833 47.2C58.5999 47.4333 57.8999 47.3166 57.4333 46.9666L57.1999 46.85C57.0833 48.1333 55.9166 48.95 54.6333 48.8333C54.0499 48.7166 53.4666 48.4833 53.1166 47.9L52.9999 47.6666Z" fill="#E2CFB9"/>
<path d="M43.6666 37.1667C43.6666 38.3924 43.908 39.606 44.3771 40.7384C44.8461 41.8708 45.5336 42.8997 46.4003 43.7664C47.267 44.6331 48.2959 45.3205 49.4282 45.7896C50.5606 46.2586 51.7743 46.5 53 46.5C54.2256 46.5 55.4393 46.2586 56.5717 45.7896C57.704 45.3205 58.7329 44.6331 59.5996 43.7664C60.4663 42.8997 61.1538 41.8708 61.6228 40.7384C62.0919 39.606 62.3333 38.3924 62.3333 37.1667C62.3333 35.941 62.0919 34.7274 61.6228 33.595C61.1538 32.4626 60.4663 31.4337 59.5996 30.567C58.7329 29.7004 57.704 29.0129 56.5717 28.5438C55.4393 28.0748 54.2256 27.8334 53 27.8334C51.7743 27.8334 50.5606 28.0748 49.4282 28.5438C48.2959 29.0129 47.267 29.7004 46.4003 30.567C45.5336 31.4337 44.8461 32.4626 44.3771 33.595C43.908 34.7274 43.6666 35.941 43.6666 37.1667Z" fill="#C8B092"/>
<path d="M51.8838 38.1753C51.8838 38.5435 51.943 38.8481 52.0615 39.0894C52.2816 39.5337 52.6815 39.7559 53.2612 39.7559C53.6167 39.7559 53.9256 39.6353 54.188 39.394C54.4546 39.1486 54.5879 38.7974 54.5879 38.3403C54.5879 37.7352 54.3424 37.3311 53.8516 37.1279C53.5723 37.0137 53.1322 36.9565 52.5312 36.9565V35.6616C53.1195 35.6532 53.5299 35.596 53.7627 35.4902C54.1647 35.3125 54.3657 34.9528 54.3657 34.4111C54.3657 34.0599 54.262 33.7743 54.0547 33.5542C53.8516 33.3341 53.5638 33.2241 53.1914 33.2241C52.764 33.2241 52.4487 33.3595 52.2456 33.6304C52.0467 33.9012 51.9515 34.263 51.96 34.7158H50.2715C50.2884 34.2588 50.3667 33.825 50.5063 33.4146C50.6545 33.0549 50.8872 32.7227 51.2046 32.418C51.4416 32.2021 51.723 32.0371 52.0488 31.9229C52.3747 31.8086 52.7746 31.7515 53.2485 31.7515C54.1287 31.7515 54.8376 31.98 55.375 32.437C55.9167 32.8898 56.1875 33.4992 56.1875 34.2651C56.1875 34.8068 56.0267 35.2638 55.7051 35.6362C55.502 35.869 55.2904 36.0277 55.0703 36.1123C55.2354 36.1123 55.4723 36.2541 55.7812 36.5376C56.2425 36.965 56.4731 37.549 56.4731 38.2896C56.4731 39.0682 56.2023 39.7537 55.6606 40.3462C55.1232 40.9344 54.3255 41.2285 53.2676 41.2285C51.9642 41.2285 51.0586 40.8032 50.5508 39.9526C50.2842 39.4998 50.1361 38.9074 50.1064 38.1753H51.8838Z" fill="white"/>
<defs>
<filter id="filter0_b_122_251" x="-4" y="-4" width="116" height="128" filterUnits="userSpaceOnUse" color-interpolation-filters="sRGB">
<feFlood flood-opacity="0" result="BackgroundImageFix"/>
<feGaussianBlur in="BackgroundImageFix" stdDeviation="2"/>
<feComposite in2="SourceAlpha" operator="in" result="effect1_backgroundBlur_122_251"/>
<feBlend mode="normal" in="SourceGraphic" in2="effect1_backgroundBlur_122_251" result="shape"/>
</filter>
</defs>
</svg>
