<svg width="108" height="130" viewBox="0 0 108 130" fill="none" xmlns="http://www.w3.org/2000/svg">
<g filter="url(#filter0_b_112_299)">
<rect width="108" height="130" rx="20" fill="#FBFBFF" fill-opacity="0.71"/>
<rect x="1" y="1" width="106" height="128" rx="19" stroke="white" stroke-width="2"/>
</g>
<path d="M58.5 19L53.5 27.5L52 26.4667L56.3167 19H58.5Z" fill="#68A9E4"/>
<path d="M62.9 19L56.6 29.9667L55 29L60.7167 19.2L62.9 19Z" fill="#66AAEE"/>
<path d="M61.5 19L55.7833 28.8L53 27.6333L58.0167 19H61.5Z" fill="#77C0EB"/>
<path d="M47.4 19L52.4 27.5L53.9 26.4667L49.5834 19H47.4Z" fill="#8FDFEA"/>
<path d="M43 19L49.3 29.9667L50.9 29L45.1834 19.2L43 19Z" fill="#8FDFEA"/>
<path d="M44.4 19L50.1167 28.8L52.9 27.6333L47.8834 19H44.4Z" fill="#ABF7DD"/>
<path d="M53.029 51.7453C52.1904 53.0031 50.5133 53.4224 49.2555 52.7236C48.5567 52.3043 48.1375 51.7453 47.9977 51.0465V50.767C46.7399 51.6056 45.0628 51.326 44.2243 50.0682C43.805 49.5092 43.6652 48.6707 43.805 47.9719V47.6924C42.2677 47.9719 40.8701 46.9936 40.5906 45.4563C40.4508 44.7575 40.5906 43.9189 41.0099 43.3599L41.1496 43.0804C39.6123 42.8009 38.7737 41.2635 39.0533 39.7262C39.193 39.0274 39.6123 38.3286 40.3111 38.0491L40.5906 37.9094C39.3328 36.9311 39.193 35.254 40.0316 33.9962C40.5906 33.5769 41.2894 33.1576 41.9882 33.0179H42.2677C41.5689 31.6203 41.9882 29.9432 43.3857 29.2444C44.0845 28.8252 44.7833 28.8252 45.4821 28.9649L45.7616 29.1047C45.6218 27.5673 46.7399 26.3095 48.2772 26.1698C48.976 26.1698 49.8146 26.3095 50.3736 26.8686L50.5133 27.0083C51.0724 25.6107 52.6097 24.7722 54.0073 25.3312C54.706 25.6107 55.2651 26.03 55.5446 26.7288L55.6843 27.0083C56.6626 25.8903 58.4795 25.8903 59.5975 26.8686C60.1566 27.4276 60.4361 28.1264 60.4361 28.8252V29.1047C61.8337 28.5456 63.5107 29.2444 64.0698 30.642C64.3493 31.3408 64.3493 32.0396 64.0698 32.7384L63.93 33.0179C65.4673 33.0179 66.5854 34.2757 66.5854 35.813C66.5854 36.5118 66.3059 37.2106 65.7469 37.7696L65.4673 37.9094C66.8649 38.6082 67.4239 40.1455 66.7252 41.5431C66.4456 42.2418 65.8866 42.8009 65.1878 42.9406L64.9083 43.0804C65.8866 44.1984 65.7469 46.0153 64.6288 46.9936C64.0698 47.4128 63.371 47.6924 62.5324 47.6924H62.2529C62.6722 49.0899 61.8337 50.6273 60.4361 51.1863C59.7373 51.4658 58.8988 51.326 58.3397 50.9068L58.0602 50.767C57.9205 52.3043 56.5229 53.2826 54.9856 53.1429C54.2868 53.0031 53.588 52.7236 53.1687 52.0248L53.029 51.7453Z" fill="#FADB14"/>
<path d="M41.8484 39.1673C41.8484 40.6355 42.1376 42.0894 42.6995 43.4459C43.2613 44.8024 44.0849 46.0349 45.1231 47.0731C46.1613 48.1114 47.3938 48.9349 48.7503 49.4968C50.1068 50.0587 51.5607 50.3479 53.029 50.3479C54.4972 50.3479 55.9511 50.0587 57.3076 49.4968C58.6641 48.9349 59.8966 48.1114 60.9348 47.0731C61.973 46.0349 62.7966 44.8024 63.3584 43.4459C63.9203 42.0894 64.2095 40.6355 64.2095 39.1673C64.2095 37.699 63.9203 36.2452 63.3584 34.8887C62.7966 33.5322 61.973 32.2996 60.9348 31.2614C59.8966 30.2232 58.6641 29.3997 57.3076 28.8378C55.9511 28.2759 54.4972 27.9867 53.029 27.9867C51.5607 27.9867 50.1068 28.2759 48.7503 28.8378C47.3938 29.3997 46.1613 30.2232 45.1231 31.2614C44.0849 32.2996 43.2613 33.5322 42.6995 34.8887C42.1376 36.2452 41.8484 37.699 41.8484 39.1673Z" fill="#FAB814"/>
<path d="M50.6904 36.6758V35.2549C51.3496 35.2256 51.811 35.1816 52.0747 35.123C52.4946 35.0303 52.8364 34.8447 53.1001 34.5664C53.2808 34.376 53.4175 34.1221 53.5103 33.8047C53.564 33.6143 53.5908 33.4727 53.5908 33.3799H55.3267V44H53.188V36.6758H50.6904Z" fill="white"/>
<defs>
<filter id="filter0_b_112_299" x="-4" y="-4" width="116" height="138" filterUnits="userSpaceOnUse" color-interpolation-filters="sRGB">
<feFlood flood-opacity="0" result="BackgroundImageFix"/>
<feGaussianBlur in="BackgroundImageFix" stdDeviation="2"/>
<feComposite in2="SourceAlpha" operator="in" result="effect1_backgroundBlur_112_299"/>
<feBlend mode="normal" in="SourceGraphic" in2="effect1_backgroundBlur_112_299" result="shape"/>
</filter>
</defs>
</svg>
